<?xml version="1.0" encoding="utf-8"?>
<!-- Generator: Adobe Illustrator 12.0.0, SVG Export Plug-In . SVG Version: 6.00 Build 51448)  -->
<!DOCTYPE svg PUBLIC "-//W3C//DTD SVG 1.1//EN" "http://www.w3.org/Graphics/SVG/1.1/DTD/svg11.dtd" [
	<!ENTITY ns_svg "http://www.w3.org/2000/svg">
	<!ENTITY ns_xlink "http://www.w3.org/1999/xlink">
]>
<svg  version="1.1" xmlns="&ns_svg;" xmlns:xlink="&ns_xlink;" width="342.264" height="431.517" viewBox="0 0 342.264 431.517"
	 overflow="visible" enable-background="new 0 0 342.264 431.517" xml:space="preserve">
<g id="Colour">
	<path fill="#00ED17" d="M28.764,89.184c-4.701-5.532-16.709-0.234-15.859,5.474c0.336,2.254,2.698,4.322,3.458,6.405
		c1.003,2.753,1.054,5.434,0.9,8.536c-0.323,6.52-2.072,12.244-3.01,18.585c-0.881,5.959-0.912,9.04,2.11,13.389
		c2.317,3.336,4.71,8.877,7.417,11.647c3.16,3.233,8.53,4.108,12.485,5.453c5.735,1.95,11.155,4.637,17.012,6.595
		c8.547,2.858,17.313,5.539,26.606,8.278c7.747,2.283,12.737,4.264,20.396,1.25c13.947-5.489,28.985-6.979,42.558-13.373
		c20.335-9.578,42.667-13.412,64.98-11.227c10.067,0.986,21.463,1.939,31.104,5c6.594,2.093,13.26,8.702,18.463,13.873
		c5.18,5.147,6.205,7.692,13.992,6.493c7.969-1.227,15.209-6.775,22.831-7.962c2.863-2.743,4.61-9.179,7.971-10.978
		c-0.184-6.463,1.597-8.876,4.185-13.951c3.339-6.551,3.625-14.375,5.529-21.479c1.819-6.788,3.318-14.02,2.883-21.497
		c-0.348-5.98-3.639-10.717-6.385-15.498c-16.16-28.146-55.452-26.936-83.51-24.123c-13.648,1.368-27.9,1.611-41.654,1.611
		c-12.537,0-24.084-3.592-36.546-3c-13.598,0.646-27.731-1.772-40.931,0.998c-5.96,1.251-10.396,3.398-15.997,6.515
		c-2.69,1.497-5.18,3.156-7.83,4.489c-4.823,2.424-8.282,5.853-13.33,7.647C56.65,82.58,40.83,79.039,31.181,87.599
		c-0.929-0.143-1.416,0.242-1.917,0.585"/>
	<path fill="#00ED17" d="M171.764,164.684c17.379-4.958,37.763-2.534,53.012-14.403c9.98-7.769-16.855-21.741-23.91-24.771
		c-11.559-4.965-25.65-4.01-37.7-1.449c-5.728,1.218-14.811,2.637-14.913,9.486c-0.06,4.042,3.514,8.334,6.376,10.784
		c2.787,2.385,5.839,4.137,8.247,7.23c3.35,4.306,4.31,8.507,6.414,13.472c-0.023-0.426-0.099-0.928-0.025-1.349"/>
	<path fill="#00ED17" d="M113.764,166.684c1.497,1.54,2.044,3.635,3.499,5.201c1.245,1.34,2.62,1.918,3.543,3.512
		c0.21,0.015,0.545-0.013,0.746,0.037c0.178-0.002,0.167-0.008-0.032-0.018c0.143,1.795,5.834,3.762,7.738,4.273
		c3.473,0.934,7.326,0.064,10.645-0.824c1.625-0.434,3.684-0.316,5.18-1.113c1.343-0.715,2.613-2.057,3.864-2.881
		c1.709-1.126,7.567-4.951,7.611-6.644c2.932-1.631,4.954-6.478,7.959-7.493c2.192-0.741,6.417,3.941,8.483,4.941
		c4.459,2.158,9.34,1.919,13.75-0.256c3.456-1.705,7.197-0.596,10.514,0.514c3.771,1.261,6.257,1.016,9.819-1.181
		c3.253-2.006,6.212-3.55,9.918-2.307c1.694,0.568,2.718,1.219,4.271,1.98c1.491,0.733,3.38,2.231,4.931,2.832
		c0.876,0.339,1.957,0.064,2.88,0.352c0.873,0.271,1.81,1.215,2.668,1.581c1.84,0.784,4.199,1.195,6.264,1.299
		c3.71,0.188,7.271-1.431,11.25-1.056c2.396,0.226,6.99,1.012,8.467-2.007c0.908-1.856-0.81-5.455-1.957-6.932
		c-2.097-2.702-5.146-5.259-7.83-7.373c-4.119-3.243-10.426-5.818-15.423-6.968c-9.097-2.094-19.669-3.858-29.056-3.732
		c-7.636,0.103-15.509,1.917-23.151,2.53c-4.711,0.377-9.516,0.713-14.235,0.732c3.26-0.057,6.063-2.204,9.26-2.499
		c-3.097,1.533-6.826-1.648-10.15-1.848c-4.707-0.283-9.315,1.071-13.947,1.65c-12.361,1.547-25.591,4.174-36.968,9.633
		c-4.19,2.01-11.811,4.482-11.715,10.27c2.464,0.939,4.229,0.609,6.601,2.313c1.652,1.187,2.57,2.115,3.605,3.98"/>
	<path fill="#00ED17" d="M308.014,132.434c5.619,0,12.56-1.044,18,0.301c4.033,0.997,9.205,2.307,11.556,5.644
		c2.097,2.976,0.136,7.57-0.818,10.543c-0.599,1.865-0.539,3.581-1.731,5.269c-1.326,1.876-3.037,3.333-4.513,5.043
		c-2.601,3.014-5.384,5.947-6.493,9.683c-1.279,4.311,0.008,9.461-3.264,12.005c-2.657,2.065-7.863,3.581-11.236,3.957
		c-4.457,0.496-8.574,0.067-12.957-0.432c-1.385-0.157-2.836-0.308-4.262-0.22c-0.523,1.371-1.783,2.25-3.238,2.494
		c-0.824,2.285-6.449,4.987-8.849,5.894c-4.13,1.56-7.279,1.495-11.312-0.126c-3.203-1.287-4.732-2.44-6.395-5.58
		c-2.752-5.202-8.365-8.752-10.971-14.076c-2.846-5.818-6.407-13.88-1.734-19.583c4.934-6.02,11.24-11.248,18.26-14.62
		c8.58-4.123,18.901-3.695,28.207-3.695"/>
	<path fill="#00ED17" d="M241.764,167.434c-0.967,2.832-1.861,5.686-2.688,8.561c0.266,0.854,0.23,3.707,0.632,5.245
		c0.478,1.83,0.831,3.769,1.307,5.693c0.764,3.093,2.456,6.319,5.555,7.695c3.124,1.388,7.771,1.669,11.194,2.062
		c3.955,0.453,8.215,0.383,11.987-0.757c3.795-1.146,6.705-1.934,8.818-5.499c3.237-5.463,4.9-12.364,3.139-18.568
		c-3.472-12.227-20.569-22.355-32.444-15c-3.175,1.966-6.102,5.251-7.743,8.568c-1.396,2.82-0.575,7.583-2.257,9.75"/>
	<path fill="#00ED17" d="M247.764,181.684c-6.495-0.142-11.835-7.777-11.75-13.75c0.068-4.845,4.841-6.981,7.818-2.744
		c2.213,3.149,2.699,7.561,3.932,10.744"/>
	<path fill="#00ED17" d="M295.264,55.434c-4.353-1.601-8.396,2.129-8.499,6.507c-0.061,2.578,1.363,4.56,2.567,6.743
		c1.396,2.53,1.818,4.698,2.175,7.507c1.187,9.34,0.419,18.963,2.757,28.237c1.396,5.537,3.336,10.889,4.438,16.506
		c0.856,4.364,1.473,8.903,2.563,13.193c1.171,4.606,3.993,8.721,8.749,9.82c4.144,0.958,8.629-0.751,12.944,0.244
		c1.733,0.399,3.511,0.914,5.318,0.999c1.308,0.062,3.871-0.542,4.937,0.295c1.938,1.522,1.236,6.944,0.824,8.897
		c3.675-0.34,4.681-6.274,5.213-8.962c0.591-2.985,2.016-8.606,1.207-11.681c-0.42-1.594-2.16-3.082-2.943-4.543
		c-0.908-1.693-1.481-3.262-2.805-4.769c-1.209-1.375-2.803-2.154-4.008-3.432c-0.832-0.884-2.664-2.562-3.194-3.555
		c-1.042-1.956,0.327-3.134,1.194-5.007c0.847-1.829,0.742-3.45,1.244-5.318c0.963-3.579,1.936-6.539,2.306-10.445
		c0.354-3.736,1.746-7.19,1.763-11.237c0.014-3.463-1.36-7.246-2.938-10.257c-1.453-2.775-3.032-6.42-5.299-8.555
		c-2.518-2.372-6.399-4.072-9.52-5.632c-3.34-1.67-6.145-3.566-9.994-3.556c-4.361,0.012-7.717-0.427-11.75-1.25"/>
	<path fill="#00ED17" d="M18.514,87.684C9.821,87.747,7.666,97.23,4.521,103.191c-1.537,2.911-4.205,5.523-3.319,9.048
		c0.916,3.644,1.905,7.906,3.25,11.256c2.611,6.5,5.767,12.838,9,18.946c1.886,3.563-2.096,6.023-3.187,9.243
		c-1.308,3.86-2.555,8.958,2.312,10.568c5.14,1.701,13.105-2.461,16.895-6.081c4.069-3.887,2.745-11.273,1.48-16.236
		c-1.672-6.56-3.882-12.833-5.992-19.238c-1.443-4.38-1.41-8.687-2.194-13.013"/>
	<path fill="#00ED17" d="M129.264,176.434c-2.652,6.711-8.867,11.547-15.744,13.492c-3.65,1.033-7.832,1.258-11.506,0.507
		c-2.239-0.458-3.705-1.27-5.75-2.055c-2.215-0.851-2.201,0.065-4.188,1.118c-3.146,1.666-8.077,1.512-11.575,0.95
		c-4.07-0.653-6.092-3.403-10.237-2.764c-7.124,1.099-12.343,2.525-19.18-0.039c-5.825-2.185-10.32-8.4-5.318-14.214
		c6.104-7.093,14.456,1.94,10.909,9.116c-1.189,2.404-4.064,5.021-6.969,4.085c-3.291-1.059-4.412-6.391-5.748-9.142
		c-0.982-2.022-2.325-1.769-4.681-1.042c-1.679,0.518-3.23,1.219-5.015,1.479c-3.835,0.56-8.066,1.099-11.943,0.45
		c-3.901-0.652-5.931-3.388-7.25-6.499c-1.412-3.329-3.438-5.796-3.861-9.639c-0.755-6.848,5.338-8.422,10.806-10
		c14.439-4.167,27.677-1.433,42.287,0.381c14.843,1.844,30.446-2.336,44.913,2.556c8.575,2.9,16.121,12.039,19.55,20.007"/>
	<path fill="#00ED17" d="M33.014,95.934c-5.065,0.29-6.752-5.068-5.987-8.987c0.737-3.773,2.758-6.361,5.933-8.575
		c2.876-2.005,5.194-4.617,8.555-5.494c3.697-0.964,7.932-1.775,11.75-2.389c3.754-0.603,8.055-0.678,11.731-1.112
		c-4.655-1.983,0.767-6.293,2.763-7.625c3.097-2.065,6.24-3.469,9.263-5.756c5.805-4.393,10.732-9.671,16.798-13.999
		c5.33-3.803,11.037-6.032,17.2-7.556c3.183-0.788,6.274-1.16,9.744-1.507c1.647-0.165,3.504-0.507,5.25-0.25
		c1.615,0.238,2.86,1.18,4.474,1.463c-1.133-0.772-3.374-1.521-2.937-3.425c4.573,0.415,9.397-0.852,13.156,2.225
		c4.962,4.063,10.529,7.841,13.319,13.994c1.806,3.982,3.706,9.91,1.938,14.256c-2.272,5.585-8.669,9.422-13.626,12.237
		c-16.791,9.538-34.803,17.476-52.13,26.013c-14.308,7.049-36.613,11.052-47.944-2.513"/>
	<path fill="#00ED17" d="M286.014,74.184c8.051-4.398,11.262-14.71,5.438-22.2c-2.332-3-5.982-4.115-8.638-6.812
		c-2.435-2.473-4.573-5.191-7.231-7.551c-3.003-2.666-6.371-3.724-10.063-4.749c-3.819-1.06-7.387-0.508-10.755-2.689
		c-3.058-1.98-6.029-4.021-9.251-5.749c-3.043-1.632-5.438-4.249-8.251-6.299c-3.264-2.379-6.813-3.965-10.048-6.389
		c-3.373-2.527-6.893-4.665-10.701-6.5c-6.508-3.136-17.652-5.73-24.694-3.007c-3.577,1.383-7.136,3.042-10.818,4.183
		c-1.788,0.554-2.414,1.643-3.981,2.575c-1.548,0.92-3.736,0.761-5.506,0.938c-7.441,0.744-15.362,1.982-22.243,4.507
		c-6.127,2.249-14.012,3.013-18.507,8.492c-8.184,9.973-7.147,28.054,1.677,37.713c6.087,6.664,16.711,9.497,25.129,11.606
		c11.624,2.913,23.603,3.762,35.507,2.494c9.607-1.023,19.215-2.148,28.888-2.062c6.767,0.061,13.565,0.929,20.3,1.561
		c10.092,0.946,20.359,0.333,30.512,0.438c4.547,0.047,8.734,1.218,13.238,1.25"/>
	<path fill="#8B5C29" d="M103.514,191.934c1.983-0.039,3.737-0.801,5.556-1.194c1.105-0.239,4.561-1.272,5.438-1.061
		c2.746,0.665,2.805,7.421,3.508,9.754c0.952,3.158,3.733,5.022,6.061,7.438c2.862,2.972,4.532,5.085,8.438,6.305
		c4.408,1.378,9.16,2.713,13.263,5.195c4.104,2.482,6.665,6.449,10.438,9.037c0.322-4.133,0.922-7.871,1.737-11.975
		c0.778-3.917,0.595-8.243,0.813-12.25c0.388-7.119-2.501-13.818-6.813-19.432c-1.262-1.642-4.059-2.709-3.899-5.031
		c3.38,0.203,7.158,2.312,10.143,4.032c3.448,1.988,7.058,3.532,8.819,7.418c2.971,6.552,2.299,14.507,6.25,21.013
		c0.966,1.59,2.059,3.902,4.068,2.818c0.721-0.389,2.071-2.981,2.744-3.756c2.048-2.358,6.041-8.021,5.688-1.313
		c-0.641,12.182-4.218,24.861-10.444,35.513c-2.352,4.022-5.269,9.448-10.111,10.932c-3.322,1.018-8.618,1.315-11.257-1.126
		c-3.163-2.928-3.53-6.069-5.118-9.831c-1.311-3.106-3.583-5.907-5.819-8.487c-4.66-5.377-10.987-10.266-17.556-12.688
		c-3.528-1.302-7.404-2.096-10.889-3.617c-4.978-2.174-0.359-5.536-1.293-9.457c-0.761-3.196-3.525-6.036-5.2-8.8
		c-1.448-2.389-2.567-7.096-4.563-8.688"/>
	<path fill="#8B5C29" d="M83.514,190.434c4.312-1.278,6.662-0.897,9.688,2.563c2.207,2.523,4.191,5.27,5.875,8.125
		c1.812,3.074,3.763,4.928,6.695,7c1.479,1.046,3.238,2.232,4.993,2.575c2.06,0.403,3.596-0.339,5.318,1.175
		c2.544,2.238,2.623,8.091-1.818,7.313c-1.516-0.266-3.039-1.32-4.556-1.694c-1.778-0.438-3.344-0.903-4.999-1.743
		c-3.027-1.537-6.16-2.96-8.507-5.5c-2.248-2.432-3.503-5.919-5.382-8.618c-2.144-3.078-3.499-8.673-6.806-10.694"/>
	<path fill="#8B5C29" d="M156.014,186.684c-3.299-1.055-5.01-3.902-7.062-6.432c-0.844-1.041-2.832-2.512-2.261-3.887
		c0.27-0.649,3.45-2.215,4.135-2.619c3.318-1.96,6.883,0.527,9.625,3c1.336,1.205,1.924,3.184,3.881,2.006
		c1.005-0.604,2.036-3.439,2.744-4.5c2.386-3.577,3.647-6.502,7.882-7.124c1.439-0.211,4.226-1.037,5.549,0.049
		c1.431,1.174,0.759,3.595,0.006,5.243c-2.928,6.408-8.07,11.365-11.25,17.514c-1.455,2.813-2.867,5.127-6.437,3.688
		c-2.196-0.885-4.613-4.117-6.063-5.938"/>
	<path fill="#8B5C29" d="M182.764,213.684c-0.003-4.177,2.707-7.423,4.819-10.681c1.875-2.89,3.42-5.567,5.868-8.132
		c2.764-2.893,5.586-5.658,6.574-9.688c0.996-4.055-0.312-7.436-1.269-11.244c-0.601-2.389-2.062-4.941-2.461-7.218
		c1.825-0.092,3.89-0.242,5.718-0.038c2.461,0.275,2.215,0.629,3.188,2.812c0.871,1.954,1.66,6.947,3.244,8.244
		c2.459,2.015,13.868-7.636,16.569-9.581c1.503,0.864,3.591,1.324,5.257,1.767c1.74,0.465,4.898,0.406,6.266,1.508
		c-1.418,1.787-4.266,3.352-6.092,4.931c-1.838,1.589-3.563,3.218-5.5,4.756c-3.66,2.907-8.635,4.231-11.643,8
		c4.031,2.263,12.523,0.545,17.211,0.313c2.62-0.129,5.181-1.778,7.751-1.499c3.917,0.425,2.366,3.501,4.161,5.511
		c-1.959,0.101-3.641,0.886-5.662,0.988c-2.078,0.105-4.172-0.098-6.25,0c-3.62,0.171-7.711,1.016-11.236,1.764
		c-3.46,0.735-6.979,1.721-10.501,2.744c-4.294,1.246-7.038,2.993-10.831,5.43c-12.938,8.314-15.225,26.662-14.682,40.313
		c0.128,3.209-0.635,6.564-0.463,9.963c3.393,0.395,6.075-3.732,9.963-2.719c3.896,1.016,3.994,6.869,1.444,8.7
		c-1.237,0.889-2.851,1.123-4.188,2.368c-1.209,1.125-2.389,2.58-3.068,4.125c-1.235,2.809-2.49,6.783-3.243,9.813
		c-0.477,1.92-0.495,4.087-0.688,6.007c-0.093,0.927,0.276,5.298-0.308,5.942c-1.459,1.611-9.918,0.182-12.199,0.295
		c-5.124,0.254-20.575,3.5-21.944-3.244c-0.64-3.15-0.089-8.818,0.431-12.014c0.256-1.575,1.262-3.381,1.282-4.979
		c0.025-2.006-0.502-3.654-0.08-5.764c0.92-4.6-0.523-8.771-0.133-13.306c0.535-6.214,1.995-10.458,6.457-14.938
		c4.604-4.624,8.551-9.688,13.931-13.506c3.254-2.31,7.625-6.998,11.557-7.744"/>
	<path fill="#8B5C29" d="M71.514,389.434c1.956-3.064,6.912-3.803,10-4.445c4.272-0.888,7.834-2.313,12.25-2.555
		c4.597-0.251,6.181-1.235,9.944-3.574c2.989-1.857,7.447-2.673,10.806-3.176c3.46-0.519,5.851-3,8.806-4.938
		c1.763-1.156,3.469-2.759,5.389-3.63c1.764-0.801,3.24-1.046,4.875-2.113c7.665-5.002,9.7-11.635,9.681-20.318
		c-0.019-8.396,2.051-16.126,1.237-24.5c-0.409-4.203,1.461-7.192,2.02-10.994c0.233-1.586-0.169-4.48,0.743-5.756
		c1.013-1.415,2.87-0.781,5-1c8.14-0.835,17.116-0.738,25.25-0.75c5.165-0.008,6.055,2.141,6.056,7
		c0.001,3.928,0.052,7.507,0.445,11.5c0.798,8.081,0.324,16.395,1.505,24.25c1.221,8.125,0.328,15.856,3.3,23.444
		c1.786,4.562,6.156,7.068,10.401,9.099c0.966,8.996-15.504,10.631-21.457,9.901c-3.982-0.488-7.939-1.345-12-1.958
		c-4.419-0.667-8.916-1.869-13.25-3.229c-3.794-1.19-7.699-3.157-11.487-3.52c-3.93-0.377-7.972,0.337-11.763,0.763
		c-7.649,0.86-14.887,3.546-22.256,5.757c-5.581,1.675-11.374,3.267-17.243,4.438c-3.125,0.624-6.183,0.643-9.5,0.806
		c-2.226,0.109-6.844,1.708-8.501-0.001"/>
	<path fill="#8B5C29" d="M259.514,403.934c-3.282-5.576-9.455-11.796-15.193-14.813c-6.803-3.576-13.854-4.871-21.111-6.633
		c-4.217-1.023-8.518-1.698-12.89-3.123c-4.037-1.316-7.716-2.507-11.806-3.237c-5.445-0.973-11.078-1.759-16.75-1.444
		c-2.313,0.128-4.631,0.396-6.938,0.506c-2.403,0.113-6.11-0.723-8.313,0.238c-3.422,1.492-0.747,7.76,1.057,10.005
		c2.023,2.521,6.019,3.645,8.432,5.745c3.161,2.753,4.893,4.932,8.761,6.575c3.278,1.394,6.22,3.517,9.509,4.674
		c3.319,1.168,6.441,1.999,9.492,4.007c3.229,2.125,6.988,3.221,10.195,5.312c2.892,1.886,5.008,4.428,8.056,6.12
		c3.624,2.012,7.097,1.954,10.943,3.123c3.574,1.086,7.053,0.947,10.78,1.407c-1.652-3.951-4.303-4.264-7.725-6.03
		c-3.188-1.646-6.354-3.664-9.251-5.737c-2.929-2.097-5.942-4.09-8.999-6c-1.678-1.048-2.91-2.585-4.493-3.507
		c-1.647-0.959-3.712-1.082-5.507-1.876c-2.649-1.173-7.354-3.396-8.006-6.556c-0.828-4.009,5.037-5.6,8.006-6.006
		c4.075-0.559,8.09,0.678,11.694,2.063c3.96,1.521,7.337,1.385,11.556,1.993c5.648,0.815,10.113,4.384,15,6.944
		c4.615,2.419,9.789,4.221,14,7"/>
	<path fill="#8B5C29" d="M128.264,375.184c-2.901,0.926-8.428,5.757-2.25,5.75c3.18-0.004,8.984-2.244,11.943-0.443
		c7.146,4.349-8.328,14.012-11.18,15.75c-3.459,2.108-7.441,3.168-10.714,5.762c-2.775,2.2-4.917,5.321-7.3,7.876
		c-2.57,2.756-5.291,5.196-7.687,8.125c-1.161,1.419-2.044,2.958-3.125,4.376c-0.708,0.929-3.397,2.787-3.2,4.041
		c0.033,0.206,0.049,0.521,0.05,0.726c4.262,0.837,6.317-2.192,9.712-4.213c2.958-1.761,5.361-3.976,7.813-6.437
		c4.917-4.935,8.038-12.074,14.424-15.374c3.473-1.795,7.623-1.072,11.275-2.438c3.555-1.33,6.504-4.008,9.737-6
		c3.254-2.005,6.212-4.656,9.743-5.757c3.874-1.208,7.036-2.019,11.257-2.243c5.61-0.299,5.975-5.189,3.938-9.5
		c-2.563-5.428-10.371-5.351-15.687-5.25c-9.181,0.173-18.195,4.302-27.251,5.006c-0.326,0.025-0.673-0.004-1-0.006"/>
	<path fill="#8B5C29" d="M158.264,285.018c-6.539-1.842-8.781,0.277-9.333,6.667c-0.355,4.11-3.143,11.625-0.749,15.415
		c2.361,3.736,13.928,1.79,18.082,1.585c4.114-0.203,13.355,1.208,16.416-1.909c2.578-2.627,0.564-6.279,0.252-9.092
		c-0.328-2.965,1.236-8.391-0.399-10.933c-1.874-2.911-7.865-1.754-10.602-1.475c-3.586,0.366-7.823,0.192-11.333-0.926"/>
</g>
<g id="Baum">
	<path fill="none" stroke="#000000" stroke-width="3" stroke-linecap="round" stroke-linejoin="round" d="M114.764,80.684
		c0,0,2.5,13,19.5,18"/>
	<path fill="none" stroke="#000000" stroke-width="3" stroke-linecap="round" stroke-linejoin="round" d="M183.764,112.684
		c0,0-5,15,39.5,8"/>
	<path fill="none" stroke="#000000" stroke-width="3" stroke-linecap="round" stroke-linejoin="round" d="M172.764,54.184
		c0,0,15,13,48-3"/>
	<path fill="none" stroke="#000000" stroke-width="3" stroke-linecap="round" stroke-linejoin="round" d="M262.264,86.184
		c0,0,4.5,8.5,26.5,4"/>
	<path fill="none" stroke="#000000" stroke-width="3" stroke-linecap="round" stroke-linejoin="round" d="M291.264,119.684
		c0,0,0.5,22.5-19,34.5"/>
	<path fill="none" stroke="#000000" stroke-width="3" stroke-linecap="round" stroke-linejoin="round" d="M40.264,121.684
		c0,0,17.5,0,37-14.5"/>
	<path fill="none" stroke="#000000" stroke-width="3" stroke-linecap="round" stroke-linejoin="round" d="M71.264,154.684
		c0,0,1,13.5,37.5-13.5"/>
	<path fill="none" stroke="#000000" stroke-width="3" stroke-linecap="round" stroke-linejoin="round" d="M136.264,136.684
		c0,0,10,5.5,20.5-1.5"/>
	<path fill="none" stroke="#000000" stroke-width="3" stroke-linecap="round" stroke-linejoin="round" d="M138.764,36.684
		c0,0-27.5-16-57.5,16c0,0-5,6.667-13.333,8.333c0,0-4.334,2.667-5.334,8.333"/>
	<path fill="none" stroke="#000000" stroke-width="3" stroke-linecap="round" stroke-linejoin="round" d="M78.598,70.018
		c0,0-42-6.333-53,17"/>
	<path fill="none" stroke="#000000" stroke-width="3" stroke-linecap="round" stroke-linejoin="round" d="M29.932,89.351
		c0,0-17.334-9.667-24.334,10s-5.333,13.666,7.334,43.667"/>
	<path fill="none" stroke="#000000" stroke-width="3" stroke-linecap="round" stroke-linejoin="round" d="M21.598,138.685
		c0,0-19.666,11.333-10,26.333c9.667,15,3.667,15.667,40.334,9.667"/>
	<path fill="none" stroke="#000000" stroke-width="3" stroke-linecap="round" stroke-linejoin="round" d="M87.264,181.018
		c0,0,18,24.334,41-1"/>
	<path fill="none" stroke="#000000" stroke-width="3" stroke-linecap="round" stroke-linejoin="round" d="M43.598,176.684
		c0,0-2.333,19.334,29.667,10.334c0,0,11.667,6,20.667,1"/>
	<path fill="none" stroke="#000000" stroke-width="3" stroke-linecap="round" stroke-linejoin="round" d="M165.265,160.018
		c-32,37-49,11.667-49,11.667"/>
	<path fill="none" stroke="#000000" stroke-width="3" stroke-linecap="round" stroke-linejoin="round" d="M244.932,170.684
		c0,0-2.779,0.592-6.992,0.206c-5.791-0.531-14.291-2.908-22.008-11.206c0,0-6.666,11.666-26.666,4.333
		c0,0-15.002,9.334-23.667-3.333"/>
	<path fill="none" stroke="#000000" stroke-width="3" stroke-linecap="round" stroke-linejoin="round" d="M294.932,181.351
		c0,0-12,16.333-34.666,16c-22.668-0.333-19.651-10.589-22.326-26.461"/>
	<path fill="none" stroke="#000000" stroke-width="3" stroke-linecap="round" stroke-linejoin="round" d="M324.598,116.018
		c0,0,40.668,19.667-7,56.333"/>
	<path fill="none" stroke="#000000" stroke-width="3" stroke-linecap="round" stroke-linejoin="round" d="M292.598,184.351
		c0,0,37,8.667,31-15.667"/>
	<path fill="none" stroke="#000000" stroke-width="3" stroke-linecap="round" stroke-linejoin="round" d="M326.266,117.018
		c0,0,33.332-59-34.334-61.667"/>
	<path fill="none" stroke="#000000" stroke-width="3" stroke-linecap="round" stroke-linejoin="round" d="M125.265,33.018
		c0,0,5.667-24,53.333-23"/>
	<path fill="none" stroke="#000000" stroke-width="3" stroke-linecap="round" stroke-linejoin="round" d="M249.598,37.351
		c0,0,11.666-13.333,28.334,2c16.666,15.333,14.666,13.667,21.666,16"/>
	<path fill="none" stroke="#000000" stroke-width="3" stroke-linecap="round" stroke-linejoin="round" d="M177.266,9.351
		c0,0,21-21.333,56.332,6.333c0,0,19.334,14,26.668,16.333"/>
	<path fill="none" stroke="#000000" stroke-width="3" stroke-linecap="round" stroke-linejoin="round" d="M102.932,191.351
		c0,0,4.667,12.667,12,18.667c0,0-6.333,2.999-14-6.334c-7.667-9.333-5.334-8.666-11.667-13.666"/>
	<path fill="none" stroke="#000000" stroke-width="3" stroke-linecap="round" stroke-linejoin="round" d="M82.598,189.684
		c0,0,7.334,10.001,10,15.334c2.667,5.333,7,10.334,23.667,15c16.667,4.666,26,11.666,31.667,21.666c5.666,10,3,29.333,1,45
		s-6.667,62.999-6,69.333c0,0-7.334,7.333-11.334,11c0,0-9.333,2.334-14.333,8.667c0,0-10.666,0-17.333,6c0,0-20,1.666-29,7.333"/>
	<path fill="none" stroke="#000000" stroke-width="3" stroke-linecap="round" stroke-linejoin="round" d="M116.848,190.268
		c0,0-4.333,18.666,19.334,24.333c0,0,12.333,4.666,20.333,15.333c0,0,2.667-16.666,3-26.333s-2-10.333-6.333-16.333
		c-4.334-6-7-10-7-10"/>
	<path fill="none" stroke="#000000" stroke-width="3" stroke-linecap="round" stroke-linejoin="round" d="M153.932,172.018
		c0,0,7,4,10,8.333c0,0,5.999-10.001,9.333-13.667"/>
	<path fill="none" stroke="#000000" stroke-width="3" stroke-linecap="round" stroke-linejoin="round" d="M203.598,166.684
		c0,0,4.334,7.333,5,12c0,0,10.334-4.333,17.334-10.667"/>
	<path fill="none" stroke="#000000" stroke-width="3" stroke-linecap="round" stroke-linejoin="round" d="M237.598,171.684
		c0,0-16,13.334-26,17.667c0,0,23,0,29.666-1"/>
	<path fill="none" stroke="#000000" stroke-width="3" stroke-linecap="round" stroke-linejoin="round" d="M195.264,165.684
		c0,0,12.334,18.666-2.666,30c0,0-13,15.666-16,20c0,0-16-16.666-3-32.333c13-15.667,5.666-16,9.666-16.667"/>
	<path fill="none" stroke="#000000" stroke-width="3" stroke-linecap="round" stroke-linejoin="round" d="M245.932,194.351
		c0,0-39.666-2.001-49.334,11.333c-9.666,13.334-12.668,9.666-14.334,51c0,0,5.334-3.666,7.334-4.333"/>
	<path fill="none" stroke="#000000" stroke-width="3" stroke-linecap="round" stroke-linejoin="round" d="M191.264,262.351
		c0,0-8,7-8,22.333s3.334,73.667,4.334,79.667s8.668,12.666,24,15.333c15.334,2.667,26,6.333,31,8.333s16.332,15.334,23.666,18.667
		c0,0-12.666-3.333-25-12c0,0-5.666-3.667-21-4.667c0,0-16-6-19.332-1c-3.334,5,2.666,9,13.332,11.667c0,0,13.334,12.667,20.668,15
		c7.332,2.333,7.998,5.333,10.332,7.333c0,0-18.666,0.334-31-9.666c-12.332-10-13.666-9.666-21.666-12s-11.666-6-16-9.667
		s-9.667-9.001-20.334-3.667s-11,7.668-17.333,10.334c-6.334,2.666-11.333,2.332-15,5.666c-3.667,3.334-8,11-11.334,13.667
		c-3.101,2.48-15.717,9.862-20.684,11.956c-0.373,0.157-0.703,0.284-0.982,0.377c0,0,17.583-20.583,24.833-27.333
		s12.25-6.75,16.75-10.25s8.25-9.25,7.25-10.75s-5.75-1.5-12.5-1s-16.5,3.5-22,4.25s-17.5,6.25-21.5,5.75s-9.5,2-13-0.25"/>
	<path fill="#FFFFFF" stroke="#000000" d="M112.264,228.434"/>
	<ellipse fill="#8B5C29" stroke="#000000" stroke-width="3" cx="192.514" cy="256.684" rx="3" ry="4.75"/>
	<path fill="none" stroke="#000000" d="M129.514,218.434c0,0,6-1.75,9.5,4.25s4.25,6.25,7,7"/>
	<path fill="none" stroke="#000000" d="M164.014,205.184c0,0,0,6.5,2.75,7s-3,13.25-3.75,14.75"/>
	<path fill="none" stroke="#000000" d="M197.764,198.934c0,0-3.25,3.25-6.25,5.5"/>
	<path fill="none" stroke="#000000" d="M165.764,254.684c0,0,1.75,1,1.75,12.5"/>
	<path fill="none" stroke="#000000" d="M157.014,251.934c0,0,3.5,1.75,1,21.25"/>
	<line fill="none" stroke="#000000" x1="155.264" y1="296.184" x2="155.264" y2="298.684"/>
	<line fill="none" stroke="#000000" x1="157.014" y1="284.934" x2="156.514" y2="287.684"/>
	<path fill="none" stroke="#000000" d="M155.264,303.434c0,0,1,3.5-1,6.75c0,0,0,3.25,1.25,4.75"/>
	<path fill="none" stroke="#000000" d="M156.764,350.184c0,0-2,12-8.5,10.5c0,0-4.75,5.75-5.5,8.25"/>
	<path fill="none" stroke="#000000" d="M163.514,359.934c0,0-1.75,6-8,9.25c0,0-4,5.75-3,8.5"/>
	<path fill="none" stroke="#000000" d="M172.014,338.434c0,0-3.5,5.75,0,14.25"/>
	<path fill="none" stroke="#000000" d="M177.764,370.934c0,0,5-2.5,4.75,5.5c0,0,0.5,4,3,4"/>
	<path fill="none" stroke="#000000" d="M167.514,289.684c0,0,2,11.25-0.75,16.5s-2.5,13.25-2,19.25"/>
	<path fill="none" stroke="#000000" d="M177.264,269.184c0,0-2,4.75,1,11.75"/>
	<line fill="none" stroke="#000000" x1="175.764" y1="315.184" x2="177.264" y2="318.184"/>
	<path fill="none" stroke="#000000" d="M177.264,286.184c0,0,1,8.25-1.75,11.75s0,9.25,0.25,11.25"/>
	<path fill="none" stroke="#000000" d="M177.764,231.684c0,0-3.5,3.5,0,7.5s-0.5,5-0.5,5"/>
</g>
<g id="Schild">
	<rect x="150.264" y="278.184" fill="#006B33" stroke="#000000" stroke-width="2" width="73" height="37.5"/>
	<text transform="matrix(1 0 0 1 156.3188 290.6841)"><tspan x="0" y="0" fill="#FFFFFF" font-family="'LucidaHandwriting-Italic'" font-size="8">Wir kämpfen </tspan><tspan x="-3.266" y="9.6" fill="#FFFFFF" font-family="'LucidaHandwriting-Italic'" font-size="8">uns durch den</tspan><tspan x="3.107" y="19.2" fill="#FFFFFF" font-family="'LucidaHandwriting-Italic'" font-size="8">Mathewald!</tspan></text>
	<path fill="none" stroke="#000000" stroke-width="2" d="M181.764,255.684c0,0-11.5,15.5-12.5,22"/>
	<path fill="none" stroke="#000000" stroke-width="2" d="M189.264,265.184c0,0,5,6.5,6,11.5"/>
</g>
</svg>
