<?xml version="1.0" encoding="utf-8"?>
<!-- Generator: Adobe Illustrator 12.0.0, SVG Export Plug-In . SVG Version: 6.00 Build 51448)  -->
<!DOCTYPE svg PUBLIC "-//W3C//DTD SVG 1.1//EN" "http://www.w3.org/Graphics/SVG/1.1/DTD/svg11.dtd" [
	<!ENTITY ns_svg "http://www.w3.org/2000/svg">
	<!ENTITY ns_xlink "http://www.w3.org/1999/xlink">
]>
<svg  version="1.1" xmlns="&ns_svg;" xmlns:xlink="&ns_xlink;" width="1366.168" height="738.388" viewBox="0 0 1366.168 738.388"
	 overflow="visible" enable-background="new 0 0 1366.168 738.388" xml:space="preserve">
<g id="Colour">
	<path d="M149,277c2.462,8.663,0.624,18.418,4.508,26.694c3.936,8.388,9.378,15.873,11.807,24.992
		c1.18,4.431,2.697,7.75,4.789,11.685c2.462,4.631,3.292,10.158,5.997,14.888c2.694,4.711,3.142,9.352,4.809,14.149
		c3.19,9.183,5.906,16.675,11.684,24.674c3.067,4.246,6.78,6.046,7.815,11.51c0.933,4.926,2.725,9.329,4.603,14.065
		c1.803,4.55,2.351,9.831,5.407,13.593c2.291,2.821,6.514,9.191,10.492,7.665c3.498-1.341,7.095-6.497,8.757-9.583
		c2.144-3.979-0.72-9.239-1.74-13.26c-1.196-4.714-3.413-10.002-2.935-14.74c1.646-16.308-10.923-29.118-12.991-44.666
		c-0.362-2.727-0.139-5.417-0.658-7.992c-1.283-6.372-0.738-12.753-4.601-18.082c-7.287-10.051-5.816-23.693-6.391-35.26
		c-0.91-18.33-9.227-43.924-28.602-50.415c-8.849-2.964-21.313,1.682-23.433,11.731c-0.83,3.935-1.059,12.819,0.018,16.683
		c1.455,5.217,8.638,4.283,13.073,4.075c5.9-0.276,11.106-1.824,16.593-3.815c2.823-1.024,5.357-2.005,8.333-2.259
		c2.04-0.174,6.371,1.001,7.927,0.407c-0.236,0.09,1.11,0.228,1.023,0.208c0.189-2.617-2.686-5.645-4.201-7.699
		c-2.387-3.235-3.109-6.515-6.725-8.703c-3.548-2.147-7.333-2.5-11.357-1.547C161.441,258.739,151.011,264.824,149,277"/>
	<path d="M283,358c1.041,2.135-0.232,5.633-0.259,8c-0.032,2.806,0.473,5.573,0.609,8.333c0.287,5.77-0.409,10.975,1.559,16.333
		c2.023,5.511,2.298,9.545,7.1,12.991c5.927,4.254,8.103,3.233,14.641,2.325c5.373-0.746,10.319-2.147,12.693-7.632
		c1.904-4.398,2.51-9.065,3.908-13.685c2.873-9.492,0.022-21.745-2.917-30.332c-1.484-4.337-2.694-7.746-7.666-9.602
		c-3.756-1.402-9.436-1.057-13.334-0.14c-3.95,0.93-7.405,3.4-10.758,5.659c-3.725,2.509-4.501,4.485-5.575,8.416"/>
	<path d="M284,197.667c-9.102-4.194-13.75,20.289-14.259,25.333c-0.566,5.604-0.416,11.384-0.074,17
		c0.356,5.849,2.024,11.216,2.667,16.991c1.325,11.908,7.088,23.385,8.259,35.343c0.522,5.332-0.473,11.808,3.325,16.083
		c3.401,3.829,10.285,6.136,15.157,6.601c5.198,0.497,11.959-1.371,16.259-4.434c4.42-3.148,5.071-9.682,5.333-14.917
		c0.592-11.801-0.209-23.191-0.333-35c-0.058-5.443-0.781-11.482-1.333-16.999c-0.521-5.203,0.312-10.407,0.333-15.668
		c0.019-4.488-1.541-11.3-4.268-14.999c-1.429-1.938-3.207-3.569-4.473-5.586c-1.255-2-1.825-4.563-3.342-6.35
		c-2.795-3.293-6.87-3.202-10.917-3.398c-3.113-0.151-9.699-1.781-12,0"/>
	<path d="M426.667,246c-9.958-2.39-20.998,6.861-25.741,14.918c-8.743,14.852,15.575,28.271,27.999,28.422
		c25.266,0.307,23.744-38.265,2.409-42.999c-1.875-0.416-3.869-0.51-5.667-1.008"/>
	<path d="M283,279.667c-7.97-1.253-3.089,23.404-2.684,27.351c1.087,10.601,0.648,21.519,1.693,31.974
		c0.503,5.031-0.469,10.514,0.341,15.325c1.152,6.837,6.137,6.684,12.317,6.684c6.853,0,10.946-1.934,16.999-4.667
		c6.168-2.785,6.682-6.893,6.333-13.333c-0.58-10.719,3.811-20.542,4.333-31c0.303-6.065-1.815-12.402-4.675-17.667
		c-4.136-7.61-13.386-8.012-20.323-12c-3.656-2.102-6.321-3.802-10.668-3.667"/>
	<path d="M289,393.333c-4.227,1.543-0.118,10.886,1.75,13.25c2.02,2.557,11.054,4.043,14.583,3.424
		c3.896-0.684,10.822-5.624,12.934-9.083c4.978-8.153-4.436-11.198-10.7-9.926c-4.547,0.923-12.245,3.611-16.567,1.668"/>
	<path d="M411,268.333c-3.904-1.764-10.546-5.761-13.425-1.352c-2.513,3.848-3.248,10.252-3.892,14.685
		c-0.787,5.418-1.467,10.939-2.333,16.333c-0.879,5.476-0.77,10.665-1.333,16.333c-1.061,10.686-1.694,21.346-2.351,32.333
		c-0.585,9.793,1.464,23.661-4,32.017c-5.428,8.301-12.659,15.518-17.242,24.392c-4.804,9.302-6.768,18.315-8.416,28.601
		c-0.695,4.34-1.209,9.918-4.083,13.583c-3.44,4.388-8.68,5.036-13.926,5.074c-4.893,0.036-9.082-3.542-13.675-4.675
		c-4.605-1.138-9.133-3.066-13.992-3.325c-5.535-0.294-10.878-0.392-16.333-0.666c-10.441-0.525-16.508,8.999-20.083,17.591
		c-1.963,4.717-2.88,10.08-3.917,15.059c-0.642,3.078,0.161,13.436-5.666,11.959c-1.882-0.478-3.736-3.382-5.586-4.35
		c-2.084-1.09-3.411-1.953-5.396-3.332c-4.018-2.789-7.026-5.469-11.637-3.056c-4.149,2.172-7.159,5.85-10.966,8.544
		c-4.211,2.98-9.362,4.275-13.416,7.344c-3.516,2.66-6.041,6.895-10.075,9.157c-4.915,2.756-9.541,1.863-14.925,2.083
		c-8.442,0.345-21.261,6.285-25.666,14.002c-2.646,4.637-2.779,9.42-3.992,14.342c-0.585,2.375-1.854,4.781-2.017,7.323
		c-0.182,2.837,0.959,5.392,0.673,8.332c-0.512,5.268-0.777,9.731,0.009,14.993c0.722,4.834,0.137,10.146,2.577,14.407
		c1.993,3.48,4.995,6.697,8.324,9.026c4.581,3.203,5.787,5.18,7.667,10.26c0.937,2.53,1.388,5.212,2.285,7.756
		c0.567,1.607,2.041,4.741,3.427,5.779c1.583,1.186,4.115,0.434,5.477,2.016c0.746,0.865-0.325,1.954,0.32,3.013
		c0.462,0.759,2.129,1.507,2.907,2.003c11.151,7.09,23.134,14.024,28.017,26.73c2.167,5.64,3.543,11.223,7.241,16.092
		c5.131,6.755,14.411,6.65,22.158,6c6.481-0.545,12.683-2.919,19.167-3.415c5.266-0.403,10.888,0.038,16.075,0.657
		c9.314,1.113,18.132,3.711,27.599,3.684c8.421-0.024,16.785,1.026,25.158,1.334c8.459,0.311,16.921-1.146,25.241-2.074
		c8.561-0.954,15.727-3.27,23.777-6.593c8.744-3.608,19.767-7.847,25.241-15.992c8.274-12.313,15.46-24.664,18.918-39.082
		c3.067-12.79-10.679-15.843-17.992-23.166c-3.385-3.39-7.143-6.856-10.918-9.686c-1.982-1.485-3.73-1.878-5.424-4.058
		c-1.44-1.854-2.199-4.144-3.501-6.026c-3.099-4.478-6.339-5.569-5.083-11.664c0.852-4.13,4.449-7.089,4.527-11.466
		c0.048-2.639-0.505-3.814,0.532-6.788c1.118-3.207,2.587-6.32,2.949-9.738c0.294-2.784-0.204-5.558,0.399-8.26
		c0.566-2.534,1.62-4.988,1.926-7.74c0.587-5.292,1.518-10.395,2-15.667c0.482-5.275,1.089-10.781,1.904-15.983
		c0.838-5.353-0.541-9.278-0.882-14.653c-0.354-5.56,2.09-11.487,3.57-16.771c1.186-4.233,4.449-7.506,4.368-12.108
		c-0.106-6.058-1.04-12.585-1.293-18.818c-0.245-6-0.902-10.95,2.334-16.333c2.718-4.522,7.159-8.699,8.748-13.667
		c0.841-2.63,0.724-5.352,1.594-8.008c0.858-2.618,2.938-4.602,4.324-6.992c1.873-3.23,3.944-8.259,3.865-12.023
		c-0.051-2.466-0.753-3.725-0.439-6.053c0.323-2.393,1.208-5.248,1.907-7.591c0.797-2.667,2.334-5.29,2.49-8.116
		c0.171-3.105-0.243-4.249,0.874-7.338c2.003-5.543,3.335-11.278,4.896-16.953c2.35-8.544,6.391-21.717,2.74-30.26
		c-1.813-4.244-3.612-8.51-9-9.341c-5.926-0.915-14.563,4.933-18.667-0.325"/>
	<path d="M510.667,539.667c3.63-2.38,5.689-8.478,8.416-11.917c3.309-4.176,7.523-7.441,11.159-11.49
		c4.154-4.625,6.881-5.533,12.684-6.999c5.917-1.495,9.558,0.474,14.981,2.497c6.46,2.408,16.389,9.818,17.093,17.242
		c0.476,5.025,1.218,9.568-0.926,14.008c-1.906,3.945-3.812,7.942-4.667,12.066c-2.14,10.32-8.339,18.776-16.157,25.844
		c-7.428,6.715-15.8,11.956-24.267,17.082c-8.696,5.265-14.737,13.241-19.994,21.666c-2.739,4.391-5.87,8.696-8.657,13
		c-2.938,4.536-6.728,6.629-11.008,9.667c-3.415,2.424-5.985,6.247-8.327,9.407c-3.115,4.205-7.04,6.861-11.999,8.593
		c-5.311,1.854-10.331,2.09-16,2.667c-5.528,0.563-10.22,3.702-14.668,6.917c-7.191,5.197-14.219,10.628-21.598,15.561
		c-5.91,3.951-10.505,8.466-16.742,12.106c-4.776,2.787-9.504,5.606-14.659,7.832c-9.973,4.305-20.146,7.4-30.674,8.908
		c-5.032,0.721-10.003,2.693-15.326,3.008c-5.458,0.322-9.621,2.48-15,3.074c-5.692,0.629-11.386,1.695-17.333,1.926
		c-5.801,0.225-8.822,3.668-14.074,5.268c-2.843,0.866-6.049,0.386-8.852,1.466c-5.557,2.141-10.121,4.806-16.083,5.926
		c-5.269,0.989-9.762-0.205-14.992-1.333c-5.169-1.114-9.818-1.367-14.667-3.992c-8.197-4.438-15.788-10.111-20.575-18.408
		c-2.379-4.124-2.776-9.484-4.091-13.908c-1.579-5.309-2.172-10.57-3.324-16.018c-2.064-9.762-4.56-19.242-7.083-28.926
		c-2.397-9.197-2.61-19.771-6.592-28.74c-1.845-4.155-5.665-7.248-7.259-11.408c-2.715-7.085,4.711-5.4,9.593-4.926
		c10.71,1.042,19.458,11.898,27.334,18.667c6.695,5.754,12.1,12.048,19.583,16.741c4.662,2.924,11.763,10.039,17.896,8.904
		c2.69-0.498,4.987-2.924,7.964-3.567c2.765-0.597,5.675-0.556,8.484-0.411c4.13,0.213,8.968,0.878,12.741,2.74
		c2.656,1.312,4.015,2.563,6.996,3c3.1,0.453,6.275,0.328,9.356,0.925c3.271,0.633,4.99,2.699,7.71,3.759
		c3.589,1.398,9.36,1.147,13.236,1.559c4.418,0.47,8.876,0.714,13.286,0.018c5.789-0.914,11.302-2.779,16.766-4.926
		c6.871-2.699,14.351-4.646,20.649-8.65c6.739-4.283,13.1-9.294,17.741-15.831c4.727-6.659,10.272-12.982,14.517-19.923
		c2.653-4.339,5.456-8.479,8.409-12.604c1.701-2.376,3.543-6.104,5.926-7.821c3.597-2.593,9.735-3.117,14-4.984
		c4.557-1.995,8.623-4.817,13.169-6.727c4.919-2.066,9.754-5.08,14.57-7.45c5.663-2.787,10.318-6.641,15.676-9.683
		c2.231-1.268,5.205-2.064,7.325-3.456c1.893-1.243,3.24-3.231,4.967-4.676c4.133-3.457,7.662-6.782,11.367-10.601
		c0.687-0.708,1.141-1.484,2-2"/>
	<path d="M76.75,424.5c-1.667-0.23-3.039-1.749-4.556-2.444c-1.664-0.763-3.543-0.96-5.444-1.056
		c-4.536-0.228-6.855,1.471-8.938,5.263c-4.231,7.702-1.257,15.563,4.25,21.675c1.165,1.294,1.715,2.893,2.744,4.257
		c1.196,1.587,2.823,2.255,4.262,3.493c2.792,2.405,3.947,5.974,6.37,8.625c2.368,2.59,5.96,3.835,8.062,6.438
		c2.338,2.896,3.821,5.892,6.799,8.431c1.744,1.486,3.359,3.109,4.985,4.722c1.479,1.466,2.29,3.19,3.453,4.542
		c1.901,2.205,4.885,2.836,7.25,4.367c3.043,1.972,4.355,5.494,7.063,7.869c2.842,2.494,4.914,5.585,6.888,8.631
		c1.849,2.852,2.704,6.739,5.117,9.132c5.603,5.555,15.106,2.532,20.244-1.938c2.669-2.321,4.47-6.134,6.014-9.193
		c1.539-3.05,1.76-6.984,2.424-10.324c0.832-4.182,0.377-6.74-0.34-10.744c-0.761-4.252-0.835-7.309-3.598-11.007
		c-2.5-3.35-4.761-6.093-8.493-8.05c-4.095-2.146-6.822-5.346-10.367-8.187c-6.304-5.051-12.943-9.292-20.188-12.696
		c-8.459-3.974-15.983-9.486-23-15.61c-3.172-2.769-7.07-6.997-11.5-6.944"/>
	<text transform="matrix(1 0 0 1 0 384)" font-family="'Myriad-Roman'" font-size="90">0</text>
	<text transform="matrix(1 0 0 1 122 210)" font-family="'Myriad-Roman'" font-size="90">1</text>
	<text transform="matrix(1 0 0 1 272 150)" font-family="'Myriad-Roman'" font-size="90">2</text>
	<text transform="matrix(1 0 0 1 428 208)" font-family="'Myriad-Roman'" font-size="90">3</text>
	<text transform="matrix(1 0 0 1 574 468)" font-family="'Myriad-Roman'" font-size="90">4</text>
	<text transform="matrix(1 0 0 1 734 468)" font-family="'Myriad-Roman'" font-size="90">5</text>
	<rect x="324" fill="none" width="0" height="8"/>
	<text transform="matrix(1 0 0 1 874 222)" font-family="'Myriad-Roman'" font-size="90">6</text>
	<text transform="matrix(1 0 0 1 1050 158)" font-family="'Myriad-Roman'" font-size="90">7</text>
	<text transform="matrix(1 0 0 1 1194 218)" font-family="'Myriad-Roman'" font-size="90">8</text>
	<text transform="matrix(1 0 0 1 1320 400)" font-family="'Myriad-Roman'" font-size="90">9</text>
</g>
<g id="Hand">
	<g id="XMLID_1_">
		<g>
		</g>
		<g>
			<path fill="none" stroke="#000000" stroke-width="5" stroke-linecap="round" stroke-linejoin="round" d="M105.5,443.5
				c0,0-39-34.5-47.5-19.5s7,30,25,48s29.5,26.5,35.5,36s11.5,16,19.5,13.5s13.5-9,15-17.5s2-21-1.5-26s-17.5-19-29-25.5
				S105.5,443.5,105.5,443.5z"/>
			<path fill="none" stroke="#000000" stroke-width="5" stroke-linecap="round" stroke-linejoin="round" d="M186,384
				c0,0-24.5-64.5-32-78.5s-5-32-6.5-38S153,242,168,246s25.5,17,30,32.5s2,39.5,4.5,45s7,10,8,17.5s0,16.5,4.5,27.5
				s10,21.5,10.5,28s-1,10,2,17s5.5,16,0,22.5s-12,8.5-17.5-1.5s-5-17-9.5-26.5S186,384,186,384z"/>
			<path fill="none" stroke="#000000" stroke-width="5" stroke-linecap="round" stroke-linejoin="round" d="M319.5,246
				c0,0,3.5-50.5-27-50.5s-21.5,43-20,58s5.5,34,6,47.5s4.5,20.5,3.5,45.5s-0.5,22.5,1.5,39.5s6.5,25,20.5,23s17-8,19-19
				s1.5-21.5,0.5-28s-5-9-5.5-19.5s3-17,4-24.5s-0.5-25-0.5-34.5S319.5,246,319.5,246z"/>
			<path fill="none" stroke="#000000" stroke-width="5" stroke-linecap="round" stroke-linejoin="round" d="M357,443
				c0.03-0.5,0.06-1,0.1-1.5c3.42-46.77,27.92-59.59,29.4-68.5c1.5-9,1-46,4-65.5s3-32,5-37s7-32.5,37.5-23.5s6,80.5,6,80.5
				s-15.5,54-24,66s4.5,15-3.5,40.5s-2,25-5,39s-4,56.5-16.5,80c0,0,33.5,34,44,36.5c0,0,43.5-25,60-33s36-65,69.5-44.5
				s-9.5,78-26,80c0,0-14.5,13-23,14c0,0-9,24-21.5,31s-7.5,21-31,25s-58.5,37.5-80.5,45s-57.5,16-79,16c0,0-30,19.5-55,10.5
				S216,713.5,212,689s-4.5-21-7-29s-4-25-8.5-34.5s-15-23.5-19-38.5c0,0-17.5,1.5-15-46.5s46-38.5,46.5-39.5s7.5-9,11.5-11.5
				s7.5-2.5,11-4s10.5-11.5,16.5-12s18,12,21.5,12s1-44,26.5-44s26,0,38,6S357,443,357,443z"/>
		</g>
	</g>
	<path stroke="#000000" stroke-width="5" stroke-linecap="round" stroke-linejoin="round" d="M1261,440.5c0,0,41.5-35.5,45.5-12.5
		s-12.5,28.5-23,38s-26.5,25-33,33s-19,36-33,21s-11-37.5-8-41.5s15.5-17.5,25-22.5S1261,440.5,1261,440.5z"/>
	<path stroke="#000000" stroke-width="5" stroke-linecap="round" stroke-linejoin="round" d="M1164.5,276.5c0,0,14.5-35.5,38-30
		s8.5,50.5,6,57s-16.5,36.5-21,48.5s-10.5,31.5-17.5,42s-10.5,21-13,27.5s-11,30-20,18.5s-5.5-19.5-3-28s8.5-30,12.5-44
		s2.5-30,10.5-41c0,0,2-15,2-32.5L1164.5,276.5z"/>
	<path stroke="#000000" stroke-width="5" stroke-linecap="round" stroke-linejoin="round" d="M1043.5,228.5c0,0,2.5-33,24-31.5
		s24,20.5,21.5,47s-5,57.5-7.5,67s-1.5,40-2,47s4.5,56.5-22,53.5s-21-41.5-20.5-47s5-5,5.5-25s-4.5-25-4-32s0.5-42,2.5-54
		S1043.5,228.5,1043.5,228.5z"/>
	<path stroke="#000000" stroke-width="5" stroke-linecap="round" stroke-linejoin="round" d="M1186,586c12-4,16.5-24.5,12-52
		s-30-33.5-34.5-33.5s-8,3.5-10.5,3s1,1.5-2.5-4s-13.5-12-20-14s-13-8.5-18.5-10s-14,9-17.5,10.5s-4-1-4-1c-8.5-67-57-34-64-36.5
		s-21-7-21-7c-3.5-47-29-63-31-67.5s0.5-17.5,0-28.5S972,314,969,299s7.5-54.5-30.5-53.5S913,298,913,298s20.5,76,25.5,83.5
		s8,10.5,9,14s-7,15-6.5,20.5s12,22,11.5,28s0,21.5,2,30s2,42,15,77c0,0-24,33.5-42,39.5c0,0-46.5-28-62-35c0,0-39-62-71.5-40.5
		s15,73.5,32.5,79c0,0,11,11.5,21,13.5s21,41.5,38.5,48s56,32.5,67,35s25,30.5,107,32.5c0,0,71,38,86-16.5c0,0,6-35.5,11-44.5
		s1-18.5,1.5-20.5s4.5-7,5-16s9.5-9,14.5-19.5S1186,586,1186,586z"/>
</g>
</svg>
