<?xml version="1.0" encoding="utf-8"?>
<!-- Generator: Adobe Illustrator 12.0.0, SVG Export Plug-In . SVG Version: 6.00 Build 51448)  -->
<!DOCTYPE svg PUBLIC "-//W3C//DTD SVG 1.1//EN" "http://www.w3.org/Graphics/SVG/1.1/DTD/svg11.dtd" [
	<!ENTITY ns_svg "http://www.w3.org/2000/svg">
	<!ENTITY ns_xlink "http://www.w3.org/1999/xlink">
]>
<svg  version="1.1" id="Layer_1" xmlns="&ns_svg;" xmlns:xlink="&ns_xlink;" width="1366.168" height="738.389"
	 viewBox="0 0 1366.168 738.389" overflow="visible" enable-background="new 0 0 1366.168 738.389" xml:space="preserve">
<g id="Colour">
	<path d="M149,277c2.462,8.663,0.624,18.418,4.508,26.694c3.936,8.389,9.378,15.873,11.807,24.992
		c1.181,4.432,2.697,7.75,4.789,11.686c2.462,4.631,3.292,10.157,5.997,14.887c2.694,4.712,3.143,9.353,4.81,14.15
		c3.189,9.182,5.905,16.674,11.684,24.674c3.067,4.246,6.78,6.045,7.815,11.51c0.933,4.926,2.725,9.328,4.603,14.064
		c1.803,4.551,2.351,9.831,5.407,13.594c2.291,2.82,6.514,9.19,10.492,7.664c3.498-1.34,7.095-6.496,8.757-9.582
		c2.144-3.979-0.72-9.24-1.74-13.261c-1.196-4.714-3.413-10.002-2.935-14.739c1.646-16.309-10.924-29.119-12.991-44.666
		c-0.362-2.728-0.14-5.418-0.658-7.992c-1.283-6.372-0.738-12.754-4.601-18.082c-7.287-10.051-5.816-23.693-6.392-35.261
		c-0.91-18.33-9.227-43.924-28.602-50.415c-8.85-2.964-21.313,1.683-23.434,11.731c-0.83,3.935-1.059,12.818,0.019,16.683
		c1.455,5.217,8.638,4.283,13.073,4.075c5.899-0.276,11.105-1.824,16.593-3.815c2.823-1.023,5.356-2.005,8.333-2.259
		c2.04-0.174,6.371,1.001,7.927,0.407c-0.236,0.09,1.11,0.228,1.023,0.208c0.188-2.617-2.687-5.645-4.201-7.699
		c-2.388-3.234-3.109-6.515-6.726-8.703c-3.548-2.146-7.333-2.5-11.356-1.547C161.44,258.739,151.011,264.824,149,277"/>
	<path d="M283,358.001c1.041,2.135-0.232,5.633-0.259,8c-0.032,2.806,0.473,5.572,0.608,8.332c0.287,5.771-0.409,10.976,1.56,16.334
		c2.022,5.511,2.298,9.545,7.1,12.99c5.927,4.254,8.103,3.233,14.641,2.325c5.373-0.746,10.319-2.147,12.693-7.632
		c1.904-4.398,2.51-9.064,3.908-13.686c2.873-9.492,0.021-21.744-2.917-30.332c-1.484-4.336-2.694-7.746-7.666-9.602
		c-3.756-1.402-9.437-1.057-13.334-0.141c-3.95,0.931-7.405,3.4-10.758,5.66c-3.726,2.509-4.501,4.484-5.575,8.416"/>
	<path d="M284,197.667c-9.103-4.193-13.75,20.289-14.259,25.333c-0.566,5.604-0.416,11.384-0.074,17
		c0.355,5.85,2.023,11.216,2.667,16.991c1.325,11.908,7.088,23.385,8.259,35.343c0.521,5.333-0.473,11.809,3.325,16.083
		c3.4,3.83,10.285,6.137,15.157,6.602c5.197,0.497,11.959-1.371,16.259-4.434c4.42-3.148,5.07-9.683,5.333-14.918
		c0.592-11.801-0.209-23.19-0.333-35c-0.059-5.442-0.781-11.481-1.333-16.999c-0.521-5.203,0.312-10.406,0.333-15.668
		c0.019-4.487-1.541-11.3-4.269-14.999c-1.429-1.938-3.207-3.568-4.473-5.586c-1.255-2-1.825-4.563-3.342-6.35
		c-2.795-3.293-6.87-3.202-10.917-3.398c-3.113-0.15-9.699-1.78-12,0"/>
	<path d="M426.666,246c-9.957-2.39-20.997,6.861-25.74,14.918c-8.743,14.853,15.575,28.271,27.998,28.422
		c25.267,0.308,23.744-38.265,2.41-42.999c-1.875-0.416-3.869-0.51-5.668-1.008"/>
	<path d="M283,279.667c-7.971-1.253-3.089,23.404-2.685,27.352c1.087,10.602,0.648,21.52,1.693,31.975
		c0.503,5.03-0.469,10.514,0.341,15.324c1.152,6.837,6.137,6.684,12.317,6.684c6.853,0,10.945-1.934,16.999-4.666
		c6.168-2.785,6.682-6.894,6.333-13.334c-0.58-10.719,3.811-20.541,4.333-31c0.303-6.064-1.815-12.401-4.675-17.667
		c-4.137-7.609-13.387-8.012-20.323-12c-3.656-2.102-6.321-3.802-10.668-3.667"/>
	<path d="M289,393.333c-4.228,1.543-0.118,10.887,1.75,13.25c2.02,2.558,11.054,4.043,14.583,3.424
		c3.896-0.684,10.821-5.623,12.934-9.082c4.979-8.153-4.436-11.198-10.7-9.926c-4.547,0.922-12.245,3.61-16.566,1.668"/>
	<path d="M411,268.333c-3.904-1.764-10.546-5.761-13.425-1.352c-2.514,3.848-3.248,10.252-3.893,14.685
		c-0.787,5.418-1.467,10.939-2.333,16.333c-0.879,5.477-0.77,10.666-1.333,16.334c-1.061,10.686-1.694,21.346-2.351,32.332
		c-0.585,9.793,1.464,23.662-4,32.018c-5.429,8.301-12.659,15.518-17.242,24.393c-4.804,9.301-6.769,18.314-8.416,28.601
		c-0.695,4.34-1.209,9.918-4.083,13.583c-3.44,4.388-8.68,5.035-13.926,5.074c-4.894,0.035-9.082-3.543-13.675-4.676
		c-4.605-1.138-9.134-3.065-13.992-3.324c-5.535-0.295-10.878-0.393-16.333-0.666c-10.441-0.525-16.508,8.998-20.083,17.591
		c-1.963,4.717-2.88,10.08-3.917,15.059c-0.643,3.078,0.161,13.437-5.666,11.959c-1.882-0.478-3.736-3.382-5.586-4.35
		c-2.084-1.091-3.411-1.953-5.396-3.332c-4.018-2.789-7.025-5.47-11.637-3.056c-4.149,2.172-7.159,5.85-10.966,8.543
		c-4.211,2.98-9.362,4.275-13.416,7.345c-3.517,2.659-6.041,6.895-10.075,9.157c-4.915,2.756-9.541,1.862-14.925,2.082
		c-8.442,0.346-21.262,6.285-25.666,14.002c-2.646,4.638-2.779,9.421-3.992,14.343c-0.585,2.375-1.854,4.78-2.017,7.323
		c-0.183,2.836,0.959,5.392,0.673,8.332c-0.513,5.268-0.777,9.73,0.009,14.992c0.722,4.834,0.137,10.146,2.577,14.407
		c1.993,3.479,4.995,6.697,8.324,9.026c4.58,3.203,5.786,5.18,7.667,10.26c0.937,2.53,1.388,5.212,2.284,7.756
		c0.567,1.607,2.041,4.741,3.428,5.779c1.583,1.186,4.114,0.434,5.477,2.016c0.746,0.865-0.325,1.954,0.32,3.014
		c0.462,0.758,2.129,1.506,2.907,2.002c11.15,7.091,23.134,14.024,28.017,26.73c2.167,5.641,3.543,11.223,7.241,16.092
		c5.131,6.755,14.411,6.65,22.158,6c6.48-0.545,12.683-2.919,19.167-3.415c5.266-0.403,10.888,0.038,16.074,0.657
		c9.314,1.113,18.132,3.711,27.6,3.684c8.421-0.023,16.785,1.026,25.157,1.334c8.459,0.312,16.922-1.146,25.241-2.073
		c8.562-0.954,15.728-3.271,23.777-6.593c8.744-3.608,19.767-7.848,25.241-15.992c8.273-12.313,15.46-24.664,18.917-39.082
		c3.067-12.79-10.679-15.844-17.991-23.166c-3.385-3.391-7.144-6.856-10.918-9.687c-1.982-1.485-3.73-1.878-5.424-4.058
		c-1.44-1.854-2.199-4.145-3.501-6.026c-3.1-4.478-6.339-5.569-5.083-11.664c0.852-4.13,4.448-7.089,4.526-11.466
		c0.048-2.639-0.505-3.814,0.532-6.788c1.118-3.207,2.587-6.319,2.949-9.737c0.294-2.785-0.204-5.559,0.398-8.261
		c0.566-2.534,1.62-4.987,1.927-7.739c0.587-5.293,1.518-10.396,2-15.668c0.481-5.274,1.089-10.78,1.903-15.982
		c0.838-5.354-0.541-9.278-0.882-14.653c-0.354-5.56,2.09-11.487,3.57-16.771c1.186-4.233,4.449-7.506,4.368-12.108
		c-0.106-6.058-1.04-12.585-1.293-18.817c-0.245-6-0.902-10.951,2.334-16.334c2.718-4.521,7.159-8.699,8.748-13.666
		c0.841-2.631,0.724-5.353,1.593-8.008c0.859-2.619,2.938-4.603,4.324-6.992c1.873-3.23,3.944-8.26,3.865-12.023
		c-0.051-2.467-0.753-3.725-0.439-6.053c0.324-2.394,1.209-5.248,1.908-7.592c0.797-2.666,2.334-5.289,2.489-8.115
		c0.171-3.105-0.243-4.25,0.874-7.338c2.003-5.543,3.335-11.278,4.896-16.953c2.35-8.545,6.391-21.718,2.74-30.261
		c-1.813-4.244-3.612-8.51-9-9.341c-5.927-0.915-14.563,4.933-18.667-0.325"/>
	<path d="M510.666,539.667c3.631-2.379,5.689-8.478,8.416-11.916c3.31-4.177,7.523-7.441,11.16-11.49
		c4.153-4.625,6.881-5.533,12.684-6.999c5.917-1.495,9.558,0.474,14.98,2.497c6.461,2.408,16.389,9.818,17.094,17.242
		c0.476,5.024,1.218,9.567-0.926,14.008c-1.906,3.945-3.813,7.941-4.668,12.065c-2.14,10.32-8.339,18.776-16.156,25.845
		c-7.428,6.715-15.801,11.955-24.268,17.082c-8.695,5.265-14.736,13.24-19.994,21.666c-2.738,4.391-5.869,8.695-8.656,13
		c-2.938,4.535-6.729,6.629-11.008,9.666c-3.416,2.425-5.986,6.248-8.328,9.407c-3.115,4.205-7.039,6.861-11.998,8.593
		c-5.312,1.854-10.332,2.091-16,2.668c-5.528,0.563-10.221,3.701-14.668,6.916c-7.191,5.197-14.22,10.629-21.599,15.562
		c-5.909,3.951-10.505,8.466-16.741,12.106c-4.776,2.787-9.505,5.605-14.659,7.832c-9.974,4.305-20.146,7.399-30.674,8.907
		c-5.032,0.722-10.004,2.693-15.326,3.009c-5.458,0.321-9.621,2.479-15,3.073c-5.692,0.629-11.387,1.695-17.333,1.927
		c-5.801,0.225-8.822,3.668-14.074,5.268c-2.843,0.866-6.049,0.386-8.852,1.466c-5.558,2.142-10.121,4.806-16.083,5.926
		c-5.27,0.989-9.763-0.204-14.992-1.333c-5.169-1.113-9.818-1.367-14.667-3.992c-8.197-4.438-15.788-10.11-20.575-18.407
		c-2.379-4.124-2.776-9.484-4.091-13.908c-1.579-5.31-2.172-10.57-3.324-16.019c-2.064-9.762-4.56-19.242-7.083-28.926
		c-2.397-9.197-2.61-19.771-6.592-28.74c-1.846-4.154-5.665-7.248-7.259-11.408c-2.716-7.084,4.711-5.399,9.593-4.926
		c10.71,1.043,19.458,11.898,27.334,18.668c6.694,5.754,12.1,12.047,19.583,16.74c4.662,2.924,11.763,10.039,17.896,8.904
		c2.69-0.498,4.987-2.924,7.964-3.567c2.766-0.597,5.676-0.556,8.484-0.411c4.13,0.213,8.968,0.879,12.741,2.74
		c2.656,1.313,4.015,2.563,6.996,3c3.1,0.453,6.274,0.328,9.355,0.925c3.271,0.634,4.99,2.699,7.71,3.759
		c3.589,1.398,9.36,1.147,13.236,1.56c4.418,0.47,8.876,0.714,13.286,0.019c5.789-0.914,11.302-2.779,16.766-4.927
		c6.871-2.698,14.352-4.646,20.649-8.649c6.738-4.283,13.1-9.295,17.741-15.832c4.727-6.658,10.271-12.981,14.517-19.922
		c2.653-4.34,5.456-8.479,8.409-12.604c1.7-2.376,3.542-6.104,5.925-7.821c3.598-2.593,9.736-3.117,14-4.984
		c4.558-1.994,8.623-4.816,13.17-6.727c4.919-2.066,9.754-5.08,14.57-7.449c5.662-2.787,10.317-6.642,15.676-9.684
		c2.23-1.268,5.205-2.064,7.324-3.456c1.894-1.243,3.24-3.231,4.967-4.676c4.134-3.457,7.662-6.782,11.367-10.601
		c0.688-0.709,1.142-1.484,2-2"/>
	<path d="M76.75,424.501c-1.667-0.23-3.039-1.75-4.557-2.444c-1.664-0.763-3.543-0.96-5.443-1.056
		c-4.536-0.229-6.855,1.471-8.938,5.263c-4.23,7.702-1.257,15.563,4.25,21.675c1.165,1.294,1.715,2.893,2.744,4.257
		c1.196,1.587,2.823,2.255,4.262,3.493c2.792,2.405,3.947,5.975,6.37,8.625c2.368,2.59,5.96,3.835,8.063,6.438
		c2.338,2.896,3.82,5.893,6.799,8.432c1.744,1.486,3.359,3.109,4.985,4.722c1.479,1.466,2.29,3.19,3.452,4.542
		c1.901,2.205,4.886,2.836,7.25,4.367c3.043,1.972,4.355,5.494,7.063,7.869c2.842,2.494,4.914,5.585,6.888,8.631
		c1.85,2.852,2.704,6.739,5.117,9.132c5.604,5.556,15.106,2.532,20.244-1.938c2.669-2.321,4.47-6.134,6.014-9.193
		c1.539-3.05,1.76-6.983,2.424-10.324c0.832-4.182,0.377-6.739-0.34-10.743c-0.761-4.252-0.835-7.31-3.598-11.008
		c-2.5-3.35-4.761-6.093-8.493-8.05c-4.095-2.146-6.822-5.346-10.367-8.187c-6.304-5.051-12.942-9.293-20.188-12.696
		c-8.459-3.974-15.983-9.486-23-15.61c-3.172-2.769-7.07-6.996-11.5-6.943"/>
	<text transform="matrix(1 0 0 1 0 384.001)" font-family="'Myriad-Roman'" font-size="90">0</text>
	<text transform="matrix(1 0 0 1 122 210.001)" font-family="'Myriad-Roman'" font-size="90">1</text>
	<text transform="matrix(1 0 0 1 272 150.001)" font-family="'Myriad-Roman'" font-size="90">2</text>
	<text transform="matrix(1 0 0 1 428 208.001)" font-family="'Myriad-Roman'" font-size="90">3</text>
	<text transform="matrix(1 0 0 1 574 468.001)" font-family="'Myriad-Roman'" font-size="90">4</text>
	<rect x="324" fill="none" width="0" height="8"/>
</g>
<g id="Hand">
	<g id="XMLID_1_">
		<g>
			<path fill="none" stroke="#000000" stroke-width="5" stroke-linecap="round" stroke-linejoin="round" d="M105.5,443.501
				c0,0-39-34.5-47.5-19.5s7,30,25,48s29.5,26.5,35.5,36s11.5,16,19.5,13.5s13.5-9,15-17.5s2-21-1.5-26s-17.5-19-29-25.5
				S105.5,443.501,105.5,443.501z"/>
			<path fill="none" stroke="#000000" stroke-width="5" stroke-linecap="round" stroke-linejoin="round" d="M186,384.001
				c0,0-24.5-64.5-32-78.5c-7.5-14.001-5-32.001-6.5-38.001S153,242,168,246s25.5,17,30,32.5s2,39.501,4.5,45.001s7,10,8,17.5
				s0,16.5,4.5,27.5s10,21.5,10.5,28s-1,10,2,17s5.5,16,0,22.5s-12,8.5-17.5-1.5s-5-17-9.5-26.5S186,384.001,186,384.001z"/>
			<path fill="none" stroke="#000000" stroke-width="5" stroke-linecap="round" stroke-linejoin="round" d="M319.5,246
				c0,0,3.5-50.5-27-50.5s-21.5,43-20,58s5.5,34,6,47.501c0.5,13.5,4.5,20.5,3.5,45.5s-0.5,22.5,1.5,39.5s6.5,25,20.5,23s17-8,19-19
				s1.5-21.5,0.5-28s-5-9-5.5-19.5s3-17,4-24.5S321.5,293,321.5,283.5S319.5,246,319.5,246z"/>
			<path fill="none" stroke="#000000" stroke-width="5" stroke-linecap="round" stroke-linejoin="round" d="M357,443.001
				c0.029-0.5,0.06-1,0.1-1.5c3.42-46.771,27.92-59.59,29.4-68.5c1.5-9,1-46,4-65.5c3-19.501,3-32.001,5-37.001s7-32.5,37.5-23.5
				s6,80.501,6,80.501s-15.5,54-24,66s4.5,15-3.5,40.5s-2,25-5,39s-4,56.5-16.5,80c0,0,33.5,34,44,36.5c0,0,43.5-25,60-33
				s36-65,69.5-44.5s-9.5,78-26,80c0,0-14.5,13-23,14c0,0-9,24-21.5,31s-7.5,21-31,25s-58.5,37.5-80.5,45s-57.5,16-79,16
				c0,0-30,19.5-55,10.5s-31.5-20-35.5-44.5s-4.5-21-7-29s-4-25-8.5-34.5s-15-23.5-19-38.5c0,0-17.5,1.5-15-46.5s46-38.5,46.5-39.5
				s7.5-9,11.5-11.5s7.5-2.5,11-4s10.5-11.5,16.5-12s18,12,21.5,12s1-44,26.5-44s26,0,38,6S357,443.001,357,443.001z"/>
		</g>
	</g>
</g>
</svg>
